/* XPM */
static char *f7615f6236894b9b9ea2ea20c067aa97upLyZqrkeEqln1Lp[] = {
/* columns rows colors chars-per-pixel */
"32 32 214 2 ",
"   c #A28597",
".  c #A28697",
"X  c #A18496",
"o  c #A08395",
"O  c #262728",
"+  c #1C1D1E",
"@  c #947889",
"#  c #9D7F91",
"$  c #A6A6AA",
"%  c #967A8B",
"&  c #35363A",
"*  c #39383C",
"=  c #9F8294",
"-  c #9C8491",
";  c #917587",
":  c #9F8193",
">  c #343539",
",  c #9D8092",
"<  c #8C7082",
"1  c #232424",
"2  c #1F2020",
"3  c #836A7A",
"4  c #967C8C",
"5  c #816778",
"6  c #997D8F",
"7  c #967E8A",
"8  c #303134",
"9  c #A3889A",
"0  c #A58799",
"q  c #776071",
"w  c #71586B",
"e  c #9A818C",
"r  c #866D7C",
"t  c #9C8488",
"y  c #161616",
"u  c #6F5A68",
"i  c #745B6E",
"p  c #A08693",
"a  c #7E767D",
"s  c #A9A8AC",
"d  c #A79389",
"f  c #E3F52C",
"g  c #A38E9D",
"h  c #323335",
"j  c #A58A9B",
"k  c #917887",
"l  c #695363",
"z  c #6D5368",
"x  c #6D5667",
"c  c #644D5F",
"v  c #796F79",
"b  c #8C7783",
"n  c #937B86",
"m  c #A1898E",
"M  c #9F878D",
"N  c #99989C",
"B  c #A5A3A9",
"V  c #AC988F",
"C  c #B2A488",
"Z  c #D6E944",
"A  c #191A19",
"S  c #393A3F",
"D  c #9D929D",
"F  c #9B8E99",
"G  c #907385",
"H  c #716971",
"J  c #AC9BA7",
"K  c #7F6676",
"L  c #88737D",
"P  c #7B6372",
"I  c #AC9A88",
"U  c #A5918C",
"Y  c #B5AE7F",
"T  c #ABABAD",
"R  c #B6B380",
"E  c #C6CA79",
"W  c #3B4536",
"Q  c #DAE76F",
"!  c #E3F452",
"~  c #CCD998",
"^  c #2F2F32",
"/  c #929196",
"(  c #5F5158",
")  c #413E41",
"_  c #292A2C",
"`  c #121312",
"'  c #343A3F",
"]  c #0D0D0B",
"[  c #8A868B",
"{  c #4A4648",
"}  c #967F85",
"|  c #8C867B",
" . c #A48C8E",
".. c #A58A94",
"X. c #A99292",
"o. c #C1C079",
"O. c #AEA27E",
"+. c #4D5241",
"@. c #C2C57C",
"#. c #B6BB9E",
"$. c #E3F470",
"%. c #D1E248",
"&. c #B8CD1E",
"*. c #D5E272",
"=. c #E3F387",
"-. c #4E5A3D",
";. c #9FB51F",
":. c #E5F75A",
">. c #7B8E48",
",. c #5A6A3F",
"<. c #687C30",
"1. c #B4C72F",
"2. c #5D585F",
"3. c #695862",
"4. c #8C3E55",
"5. c #833E53",
"6. c #7A6174",
"7. c #A98D9C",
"8. c #9F8390",
"9. c #A0A0A4",
"0. c #8D8D92",
"q. c #9E9BA0",
"w. c #857A6E",
"e. c #907A7F",
"r. c #787C8B",
"t. c #726A51",
"y. c #8C777A",
"u. c #42667D",
"i. c #9F8B86",
"p. c #A29781",
"a. c #A5A99A",
"s. c #998A76",
"d. c #A79A80",
"f. c #B3AA82",
"g. c #A6A47E",
"h. c #767B72",
"j. c #ADAFA6",
"k. c #AFAB73",
"l. c #CDDB5A",
"z. c #D3E643",
"x. c #AEA879",
"c. c #E0F146",
"v. c #D5E38F",
"b. c #BCC887",
"n. c #DDEF63",
"m. c #A6AD8C",
"M. c #DBEF45",
"N. c #C7DB35",
"B. c #C1CD95",
"V. c #5F7037",
"C. c #AC93A4",
"Z. c #A691A0",
"A. c #8C6D7D",
"S. c #554A4E",
"D. c #54545A",
"F. c #857078",
"G. c #5F5842",
"H. c #7C6A6F",
"J. c #395E77",
"K. c #A8A08E",
"L. c #ABAC7A",
"P. c #BCC498",
"I. c #9D9777",
"U. c #8E8E7B",
"Y. c #99947F",
"T. c #606241",
"R. c #B3B489",
"E. c #BAC384",
"W. c #B1B69A",
"Q. c #CDD776",
"!. c #DEF03C",
"~. c #A6B279",
"^. c #CAD281",
"/. c #939870",
"(. c #97A17C",
"). c #A3B830",
"_. c #82972D",
"`. c #798C29",
"'. c #C3D52D",
"]. c #778658",
"[. c #EAFB6B",
"{. c #A5B940",
"}. c #E7F88B",
"|. c #8A9E2B",
" X c #ADC02D",
".X c #656168",
"XX c #5A3945",
"oX c #553845",
"OX c #633645",
"+X c #5D3240",
"@X c #958893",
"#X c #4B423C",
"$X c #9A9988",
"%X c #736760",
"&X c #41545F",
"*X c #4B748C",
"=X c #9A9788",
"-X c #6F8C9B",
";X c #635A3D",
":X c #577A91",
">X c #CDD37C",
",X c #6D7166",
"<X c #D9E755",
"1X c #7D8277",
"2X c #B1BD7A",
"3X c #657254",
"4X c #ADC032",
"5X c #6E8043",
"6X c #F0FF7E",
"7X c #E9FB7A",
"8X c #A6A673",
"9X c #C9D26B",
"0X c #DAEA8D",
"qX c #92A424",
/* pixels */
"* S S S oX4.4.5.A.D g .   . . . . .     X g F 2.& S * & & & & & ",
"* * S ' XX4.5.- D 4 o             .     . % X Z.H & * & & & & & ",
"& & * ' OX5.F D % 0 .           . = o   . = @ o C.v & * & & & > ",
"> & * ' +X- D % 0 X             . , 4 0 X 0 6 4 = C..Xh * > h h ",
"h h & 8 H J ; 9 X X X     X     . o @   . X   k X . F { h h 8 ^ ",
"8 h h ) q.= . Z.o     9 . X o g j o % X 9 X   6 o g j a ^ h 8 O ",
"O _ 2 H J # j 9 o = , j 6 o o g 9   ; , 9   X X : 9 : g ) 1 O 1 ",
"+ + O F 9 : X o 0 e e j 4 6 = . X 0 < 4 j . .   @ = : 7.2.A 1 O ",
"&X' D.F 6 . 4 , 7.e.t m y.b = X o   L L M } e.7.; 4 X 0 v O _ O ",
"-X:Xr.b , . r n M | p.d w.} o X o   } | d Y.w.t L ;   X b _ O O ",
"u.J.r.b o o F.t V g.Y f.I.i...p . ..U p.O.x.g.V e.F.0 # < h O O ",
"u.J.r.;   8.y.V C E.*.>XR d.V X. .X.K.R.E Q @.C U y...8.G * 1 _ ",
"*Xu.a k ..m s.C R v.f n.b.L.f.C d.C R.b.Q f Q R O.s.X.m n ) 1 1 ",
"| h.v n U d.x.o.^.[.;.%.=.E E @.o.@.^.0XZ ;.:.Q.@.k.C d } { 2 + ",
"=Xt.H.7 d Y %.%.Z N.>.{.c.z.!.c.M.c.Z M.1.>.N.M.z.Z o.I t S.2 A ",
"t.;X%Xt d R ! &._.>.3X,.<.;.f f f f ;.>.].,.V.`.&.! o.I t ( 2 A ",
"t.T.G.7 i.O.E ! N.5X+.-.|.! *.Q.9X*.:.{.T.-.,.1.:.E O.d e ( + A ",
"G.+.#Xn t p.Y *.!.<.V.,.4X6XE.x.8Xb.}.1.V.<.<.Z l.k.I  .7 ( + A ",
"2 2 S.p M s.x.Q  X_.Z ).`.n.~ /.m.B.n.|. Xf qX).Q f.V M = l + A ",
"2 2 ( : m d Y <X&.! }.7X1.'.v.W.#.~ %.'.[.=.:.&.z.R d M = 3.+ y ",
"+ 2 3.# t V Y l.$.v.B.~ =.$.2XY.U.~.$.=.~ B.~ $.l.Y U - @ 3.+ y ",
"+ 1 u 6 e U I 8XP.#.#.m.m./.-.W W -.].(.(.W.#.P.L.I i.7 % u + y ",
"+ 1 P 6 4 m  .U.a.j.j.1X+.W { h.h.+.W W ,Xa.j.a.$X .e % @ q 2 y ",
"+ O 3 % % : p H.a T $ T N [ q.T T 9.0.N s s $ a F.8.% @ @ P 2 y ",
"2 _ < @ @ # : 5 u [ s $ $ T $ B B $ s $ s $ a w q = @ ; @ 5 2 ` ",
"1 * k r G # # 5 i c v N s $ B B B B $ s N H l q q , @ ; ; r 1 ` ",
"_ @X= 5 ; # : K i z z u a N $ $ $ B q.a u z x i 6.# % @ < < O ` ",
") J 6 3 ; # , 5 w z x q x 2./ 9.9.N 0.x i x l i 6.# 6 : K < ^ ` ",
"D.J @ 5 < % , 3 w c 5 L u [ / / / D [ u 3 r c i P # 6 : q G * ] ",
"H J ; K 3 G : 3 w c K p e 4 7 L b n n 7 p 3 c w 5 , @ # i < { ] ",
"| X.; 6.3 < , A.w z w e - - p k 7 p - - e u c l 3 : < % w r l ] ",
"K.m G q 5 5 # < l q v 7 - - - k 7 - - - b w.0.v r : 3 @ x P P ] "
};
