/* XPM */
static char *_a3f959664264cc3fc8dbb8ded5c6436rr88CoKfUxNgyfN0[] = {
/* columns rows colors chars-per-pixel */
"32 32 192 2 ",
"   c #FAA7B7",
".  c #F9A6B6",
"X  c #FAA9B9",
"o  c #FDF1E7",
"O  c #FBEEE4",
"+  c #FFF4EA",
"@  c white",
"#  c #F7A5B5",
"$  c #F9A8B8",
"%  c #F9EDE4",
"&  c #FDF2E8",
"*  c #F5F5F6",
"=  c #F9AABC",
"-  c #FBEFE6",
";  c #EF9FAF",
":  c #FCEFE5",
">  c #FCA8B9",
",  c #FFF6EB",
"<  c #FAA3B7",
"1  c #F8EBE2",
"2  c #FEA9BA",
"3  c #F6B0B5",
"4  c #F6A1B4",
"5  c #F0A8AD",
"6  c #F49EB1",
"7  c #F5E9DE",
"8  c #F1A1B2",
"9  c #FEABBC",
"0  c #FBFAFA",
"q  c #FAB4B9",
"w  c #F5ADB2",
"e  c #EFA6AA",
"r  c #F0A4B5",
"t  c #FFF8EE",
"y  c #FFAEBF",
"u  c #FFB1C2",
"i  c #FDFEFE",
"p  c #EF95A6",
"a  c #FA9EB1",
"s  c #FCA6BA",
"d  c #F8A9BC",
"f  c #FFA6BA",
"g  c #E198A6",
"h  c #F5A4B5",
"j  c #CFBBB3",
"k  c #FFFBF1",
"l  c #F4F4F4",
"z  c #F4ABB1",
"x  c #F097AA",
"c  c #E7D5CD",
"v  c #D9939F",
"b  c #EA9CAD",
"n  c #906B6C",
"m  c #B67C87",
"M  c #A78C85",
"N  c #B8A096",
"B  c #AD9288",
"V  c #F49BAF",
"C  c #F299AC",
"Z  c #EBC5BF",
"A  c #F9AEBE",
"S  c #925B67",
"D  c #D6C2BF",
"F  c #F7E6DE",
"G  c #98837A",
"H  c #88736F",
"J  c #F1AF9D",
"K  c #E4D3CD",
"L  c #A7A5A5",
"P  c #FCB6A3",
"I  c #E5A393",
"U  c #CC939A",
"Y  c #231A1C",
"T  c #A1897F",
"R  c #795054",
"E  c #6F4344",
"W  c #F6AAB0",
"Q  c #F9F2EB",
"!  c #EA92A7",
"~  c #D07D94",
"^  c #D3899A",
"/  c #E28FA0",
"(  c #EADBD4",
")  c #C78493",
"_  c #F5B19F",
"`  c #E798A9",
"'  c #8A8989",
"]  c #F0E6DC",
"[  c #B47581",
"{  c #694D4D",
"}  c #B29C90",
"|  c #423A36",
" . c #FCCFDA",
".. c #FFFEF5",
"X. c #B0988E",
"o. c gray76",
"O. c #E7A1AD",
"+. c #FFBAA6",
"@. c #9C9899",
"#. c #F7F8F8",
"$. c gray95",
"%. c #D7D5D6",
"&. c #816E67",
"*. c #F1AEB5",
"=. c #F9BECB",
"-. c #EBE1D9",
";. c #F4E3DA",
":. c #BCA9A3",
">. c #CC999B",
",. c #D5C1B8",
"<. c #C1AEA5",
"1. c #DBDBDC",
"2. c #C98895",
"3. c #D5BEB8",
"4. c #AE727F",
"5. c #D4A597",
"6. c #F7B4A1",
"7. c #312A29",
"8. c #96635F",
"9. c #74494D",
"0. c #9E7478",
"q. c #E5D8CF",
"w. c #DDCCC2",
"e. c #633B3D",
"r. c #4F3439",
"t. c #D7C7BF",
"y. c #131115",
"u. c #58524F",
"i. c #82585F",
"p. c #422B33",
"a. c #272424",
"s. c #CBCCCC",
"d. c #E1DFDF",
"f. c #020409",
"g. c #FBC5D2",
"h. c #F9B3C2",
"j. c #F9F5EE",
"k. c #BC6881",
"l. c #CF8595",
"z. c #EAADB7",
"x. c #EBBFC3",
"c. c #8A5754",
"v. c #C49354",
"b. c #DF879A",
"n. c #E3CEC6",
"m. c #928883",
"M. c #876564",
"N. c #CAB5AA",
"B. c #755A57",
"V. c #A2948E",
"C. c #B6868A",
"Z. c #A47E7D",
"A. c #635D59",
"S. c #DC9DA6",
"D. c #554042",
"F. c #B8847A",
"G. c #BC9490",
"H. c #797674",
"J. c #E29CA9",
"K. c #C08D86",
"L. c #4A4848",
"P. c #917A70",
"I. c #685B54",
"U. c #EFCECB",
"Y. c #C27887",
"T. c #F9B7C8",
"R. c #E6B1B6",
"E. c #E493A4",
"W. c #E0B3B5",
"Q. c #A06673",
"!. c #D29889",
"~. c #7C5F5D",
"^. c #B9657B",
"/. c #997C79",
"(. c #C47086",
"). c #D4ACAF",
"_. c #8F6547",
"`. c #C2BBB3",
"'. c #A76174",
"]. c #C07F85",
"[. c #DE9DA6",
"{. c #A28223",
"}. c #BD9A2C",
"|. c #DEBF3F",
" X c #746C69",
".X c #D5C9CE",
"XX c #977673",
"oX c #E7EAEA",
"OX c #917A80",
"+X c #CB8C97",
"@X c #42464E",
"#X c #F6DBE2",
/* pixels */
"D  .d = = = = = $ T.g.$ = d d = 2.{ g y 8 r r r d = S.G.O.O.= = ",
" .d d = X X X X X = A X X X X 9 r ~.B.) 9 X $ 9 u X b C.&.u.i.X ",
"d X X $ A A $ X X $ $ X X X X $ y m G M.m h h J.m i.r.9.4.0.I.R ",
"$ X X . h.=.2 v 8 9 $ $ $ X $ $ y v P.B Z.J.v r.y.y.OX . .#Xt.P.",
"      . = =.y ) S u #             . Z.M B B.y.p.Y a.oXi * i d.N ",
"  X X     $ 2 g D.4.u ;         . 2 U B &.A.s.L @..X#.l l i s.T ",
". A =.h h   2 g n { ) 9 b $     . > 8 M V.* @ @ @ i l #.$.@ @.M ",
". X g.# ; $   b n T { ^ 2 b .         K.<.i #.$.$.l * $.@ s.&.w.",
"  . h.X ; $ h 8 n T M XXO.u h # $ # 2 >.X.L d.@ i #.0 @ o. Xj & ",
"    . $ 8 # ; > 0.G B X.H i.v ; # $ > [.} N H.@.1.$.1.L m.,.o o ",
"      $ # ; ; y m T B | Y H.B G.U # 2 O.} N T I.| L.u.V.c o o : ",
"h     . > ` 8 9 v &.a.Y L @ ( X.} >.s *.c t.,.N.N :.c + + : : : ",
"b     $ # b g u 2.f.L.d.@ $.0 j N } S.A O t & + , t & - - : : : ",
"8 8 >   ; . U +Xp.f.@X@ $.l @ o.G N.c z.1 : - O + k k , - : : : ",
". ; $ ; h 9 U a.e.Y u.@ $.$.@ L 7.w.t 3.% o % + K N 3.T t.k O : ",
"> 8 ` # . y R f.p.D.%.i l $.@ ' Y q., ] % % ..j E E E E H ] & - ",
"  h b h y [ 7.o.%.%.* * l #.#.7.A.k O o t + c n E R R 9.e.q., - ",
"  $ . ; 8 r.m 0 @ 0 l l * @ ' | w.t % & D n 8.K.I I I F.j + - : ",
"    . 9 m R y K #.$.l i @ ' | <.o - % k M.8.+.+.P P 5.] k - : : ",
"    # u 4.2.9 x.i @ 0 %.' H :.;.& % k K 8._ P J 6.J K t 1 : : : ",
".   . $ g ; 8 r %.o.@.G X.j ( & O t ,.9.F.+.J 6.+.5.( & : : : + ",
". . . . >   8 4 n m.<.j n.;.& : O k /.e.I P _ _ !.3.o : : & o ( ",
"# . . . # .   # / H ;.7 + & - - , -.{ c.J 6._ Z c , o : + 7 x.w ",
". h # # # # # h y [ `...1 : : : o o H c.P J Z j., O : & U.*.5 *.",
"l.s 4 4 s h h h h f 0.-.+ % : : O + - G 5.;.Q O % O o Z W q q 3 ",
"_.6 < ` ) f 4 4 4 s ` M & O % O O % : + % o Q Q O & Z W q q q q ",
"{.].< < [ ^ f 6 4 6 f ^ :.t 1 % % % % 1 % % % j.Q Z W q 3 3 3 3 ",
"}.v.! 4 4 Q.E.< 6 6 6 f ^ D + 1 % 1 % % % % 1 + D g q 3 3 3 3 w ",
"|.v.~ 6 6 / S C 6 V 6 6 a g -.% 7 1 1 1 1 1 1 ] >.W w w w w w 5 ",
"I ~ (.x x a l.S V V C C V V z.7 7 F F F F F + j v 3 z z z z z z ",
"! b.^.~ C p a ~ S x C x x C p R.7 7 7 1 1 7 K C.e 5 5 5 5 5 5 5 ",
"/ b.k.k./ p ! a Y.S p p p p x ! W.K n.D ).U '.[ w e e e e e e e "
};
