/* XPM */
static char *_a15ab8d8aab43f7aca243ef8ef0b386qyxmfiiJfL33xyRT[] = {
/* columns rows colors chars-per-pixel */
"40 40 47 1 ",
"  c black",
". c #595856",
"X c #3C3B38",
"o c #4A4947",
"O c #828283",
"+ c gray49",
"@ c #717170",
"# c #636361",
"$ c #BEBFC4",
"% c #5D5D5A",
"& c #555451",
"* c #504E4C",
"= c #9D9D9E",
"- c #B4B3B5",
"; c #C5C7CD",
": c gray65",
"> c #AFAFB3",
", c #464542",
"< c #A9A9AB",
"1 c #7B7975",
"2 c #6E6D6B",
"3 c #41403E",
"4 c #B9BABE",
"5 c #918F88",
"6 c #767574",
"7 c #686869",
"8 c #C1C3C9",
"9 c #989798",
"0 c #9C9B96",
"q c #8B8981",
"w c #989691",
"e c #353432",
"r c #2E2C2A",
"t c #87878A",
"y c #B6B6BB",
"u c #908F8F",
"i c #AEAEAE",
"p c #CBCDD3",
"a c #6A6862",
"s c #A3A29F",
"d c #8B8B8D",
"f c #838179",
"g c #D3D4DB",
"h c #242421",
"j c #939393",
"k c #A1A1A3",
"l c #1B1A17",
/* pixels */
"                                        ",
"                                        ",
"                                        ",
"                                        ",
"                                        ",
"                                        ",
".uj:t&o:>-.d=.*-$8--+9o>p+l=-><::a30uw@r",
"&@O&%yk+4>2$<*72o7@@o1O;8yr.OO+tdhe:+*el",
"1>$+u$;6#6,#+<$yr6p;4&k8$$o1O6oh@#,r*1q#",
"Xd-#6481*-q*$y>-eO;48@=;84.:=iaX$i0e15%o",
"3%oooa1.%%*h@:-2e#2&#%+gpyhu-13o*12e&,rw",
"@k&s%*wwwe792%3#8p4,kp#+=#X7&esOr..ea=Xs",
"30oore5w0o@-$k&<$>4Ou;%+@@gy<6h2:$4q,03@",
"%Xo#2%&6,#6X2O#;;$p63.tg9d$$;i%i$y>-X,f*",
"X,wqfqot@j;9r7*#O9j*<d,d.1;$;8oX$88w3<-=",
",aw55#*>#:yO&=yo+:3<p$#>4%9>do.7%OO*%Ou6",
"%e#%2%%,*:a@:=<j*O*$$$#k-whOth:g4e2;;=+X",
"&9%*=:>k2rf:<0s<&+%igp7:>:.+p:,:<#;88gkr",
"0i66<w=y<*wi>:sr#g@X=d.7+O,,44r*@o;;8u&X",
"fqae0ss0wX36t1&77@#t93$toy$Oo7t$pO7u3@4-",
"X%.o.#66#3=9,&s$p7<g;O8-=;$pOtgyy<%$+dy>",
".fq05Xu>k%-4u7--8<+8;%=jo>$ptrky4=3u6+yi",
"a5w5f3o5qX6wq*i$$8%=>e@O76t#.@+%,Otj&7$2",
"1a#&3+t#*131&hi88$X+%O8>-$:.y44<,488k3oo",
"sw2r1<::*O->i1#<$Otg8O=yyp7#yi$9%$y$93X1",
"00=2w=w2X5q+@,2k&@g-88#6j6u6o@6hog$4%q5X",
"owi*aa,h,%6O9.uk#2y;$p7tO&>-h*u5*+93#i.e",
"6oO,&a1&2-=kijrO-<#dg=+8;8.*7i<s+e>=,.OO",
"0&r2qq5ah29s0q.<-<&+.37$8pO###9-=*48#d$4",
"02&1fq5X%#%12XX9d@.2@>q%<>.X-u31ar9-X%:9",
"2,h.%o.&#55X.=d23;il9i<9,#gOji3tsw*Xf+#%",
"q5X,@.@.aq0+2s4tt-y7#9d=j#>@,.f:9<5Xwi0s",
"55*f=0w6&5w6&O,&9Od67++O0*+>:&5susur1k:5",
"q@rfq1ffh65of0&a=t++ee#6%.p;>ea0wqe%3e+5",
"                                        ",
"                                        ",
"                                        ",
"                                        ",
"                                        ",
"                                        "
};
