/* XPM */
static char *_cc3a204a7214517e0fa0598305f4d2ewWmbkRwKAQPv36GC[] = {
/* columns rows colors chars-per-pixel */
"32 32 256 2 ",
"   c black",
".  c #B7D1DB",
"X  c #040902",
"o  c #A2C3D5",
"O  c #BD785C",
"+  c #010500",
"@  c #A7C7D8",
"#  c #A5C5D7",
"$  c #AC6E57",
"%  c #91B5D0",
"&  c #B4725C",
"*  c #B6CFDC",
"=  c #83A6B7",
"-  c #ABC9DA",
";  c #BED8DB",
":  c #BAD4DE",
">  c #A96C54",
",  c #B4CBCB",
"<  c #B8755D",
"1  c #C37A61",
"2  c #9ABED4",
"3  c #BACDB5",
"4  c #B9D2D7",
"5  c #83A3B4",
"6  c #9FBED5",
"7  c #9EC2D4",
"8  c #BDD6DF",
"9  c #9CBFD0",
"0  c #070D05",
"q  c #5A7B91",
"w  c #373321",
"e  c #6B807A",
"r  c #322F25",
"t  c #2D291C",
"y  c #222116",
"u  c #201E0F",
"i  c #F8E2C9",
"p  c #B0CDDB",
"a  c #80A4C1",
"s  c #B7CED3",
"d  c #734231",
"f  c #B2C7B7",
"g  c #BD7B63",
"h  c #5F3A2B",
"j  c #B3C6C6",
"k  c #B07159",
"l  c #A56651",
"z  c #242E27",
"x  c #332E1C",
"c  c #4E4739",
"v  c #F5DEC5",
"b  c #81A7C4",
"n  c #87A099",
"m  c #B4CFD9",
"M  c #A8C9D8",
"N  c #BBD7DC",
"B  c #BFD9E0",
"V  c #7996A3",
"C  c #88543F",
"Z  c #BAD0CB",
"A  c #A8C3CE",
"S  c #737669",
"D  c #98B5C3",
"F  c #84533F",
"G  c #96725C",
"H  c #9F6850",
"J  c #C27E63",
"K  c #C67D64",
"L  c #71878D",
"P  c #9C644A",
"I  c #938770",
"U  c #9E9385",
"Y  c #6A432D",
"T  c #282515",
"R  c #E2A290",
"E  c #AB9581",
"W  c #BDD5D7",
"Q  c #FEFFFF",
"!  c #CBBDA9",
"~  c #121308",
"^  c #83786B",
"/  c #B4AFA4",
"(  c #3E3D33",
")  c #E0CFB6",
"_  c #C3B5A2",
"`  c #A39B8C",
"'  c #9AC1DA",
"]  c #AACAD5",
"[  c #899F8F",
"{  c #8FACB6",
"}  c #849C8F",
"|  c #9D5F4B",
" . c #98BAD2",
".. c #784834",
"X. c #7F4E38",
"o. c #B0C2C2",
"O. c #C78365",
"+. c #D2BA57",
"@. c #86604D",
"#. c #6D847A",
"$. c #787C6E",
"%. c #A27863",
"&. c #8F6B54",
"*. c #7A8E82",
"=. c #ACC1B3",
"-. c #94B1BF",
";. c #97826B",
":. c #8E7C66",
">. c #836F5B",
",. c #9D8D7A",
"<. c #B7C9AE",
"1. c #8E8473",
"2. c #ABA28B",
"3. c #161A11",
"4. c #D19C88",
"5. c #AA9A84",
"6. c #C2DBE0",
"7. c #2F342C",
"8. c #A09E96",
"9. c #B0C4B5",
"0. c #999180",
"q. c #605B51",
"w. c #4E676C",
"e. c #A4A193",
"r. c #FBE5CD",
"t. c #D4C3AC",
"y. c #829D95",
"u. c #89A399",
"i. c #BBB26C",
"p. c #C1AD58",
"a. c #6F8A99",
"s. c #98B8CF",
"d. c #667E8C",
"f. c #C2C398",
"g. c #B37054",
"h. c #995C46",
"j. c #CDC069",
"k. c #8FA8AE",
"l. c #ABBCBC",
"z. c #737265",
"x. c #B5C7AE",
"c. c #A06F5A",
"v. c #654A37",
"b. c #85644E",
"n. c #99B8C7",
"m. c #9ABACE",
"M. c #80968A",
"N. c #56534C",
"B. c #D8A08E",
"V. c #CC7E60",
"C. c #5C615C",
"Z. c #B7CDBE",
"A. c #EAEFE9",
"S. c #C89785",
"D. c #3B3724",
"F. c #AF7859",
"G. c #323B36",
"H. c #868171",
"J. c #AFA692",
"K. c #E2CBB1",
"L. c #9BABA3",
"P. c #64655C",
"I. c #F2F6F2",
"U. c #EFD7BE",
"Y. c #DFDED5",
"T. c #9FBBC7",
"R. c #E9D2B9",
"E. c #567490",
"W. c #7DA5C2",
"Q. c #60797F",
"!. c #81A0AE",
"~. c #718B83",
"^. c #7A9388",
"/. c #94B5C9",
"(. c #B7CDCC",
"). c #9B8477",
"_. c #6E3C2D",
"`. c #7C9CAE",
"'. c #ADBEA7",
"]. c #948C89",
"[. c #6C523D",
"{. c #524031",
"}. c #73929B",
"|. c #7390A3",
" X c #BFD4CF",
".X c #94A5B3",
"XX c #A0B1A0",
"oX c #A1AF8C",
"OX c #BE7E5F",
"+X c #A99B50",
"@X c #B6A34B",
"#X c #B7BF85",
"$X c #95A49D",
"%X c #99ABAE",
"&X c #AA715B",
"*X c #955A42",
"=X c #795141",
"-X c #888992",
";X c #1D2822",
":X c #857563",
">X c #B5AB97",
",X c #95614B",
"<X c #CEB4A4",
"1X c #AD9287",
"2X c #C4AAA0",
"3X c #869182",
"4X c #B88A75",
"5X c #E0C3AC",
"6X c #BDBEA7",
"7X c #B38D7A",
"8X c #5C4E3E",
"9X c #C6A28E",
"0X c #B8A58F",
"qX c #CDC1B4",
"wX c #877979",
"eX c #8E9884",
"rX c #C3D5BE",
"tX c #36433F",
"yX c #A6A9A2",
"uX c #4C574E",
"iX c #E5D4BE",
"pX c #394849",
"aX c #48585B",
"sX c #738185",
"dX c #667971",
"fX c #F9FDFA",
"gX c #A86957",
"hX c #A9AF78",
"jX c #C3CDAE",
"kX c #A99E6F",
"lX c #9D7E45",
"zX c #785D49",
"xX c #7A8E79",
"cX c #775C4A",
"vX c #C1D9CF",
"bX c #CAB466",
"nX c #4F2E1B",
"mX c #B1846F",
"MX c #454E48",
"NX c #B58372",
"BX c #EAE8E3",
"VX c #574334",
"CX c #B5A993",
"ZX c #D7D2C7",
"AX c #716D60",
"SX c #BE967F",
"DX c #646867",
"FX c #C0886C",
"GX c #959896",
"HX c #EAD9C1",
"JX c #FFF2D8",
"KX c #4F3627",
"LX c #BBAE9C",
"PX c #446064",
"IX c #697B7C",
"UX c #C2C5BE",
/* pixels */
"* . * . m m * * * : D L Z L.C.7.r w w w x uX%X] 9 6 6 6 o s.{ [ ",
": . . . . * * * * : -.L 3XD.x w T T t x w T u L M 9 6 6 o s.k.} ",
"B B ; ; 8 8 8 8 : B T.w.( w x u c c u x w D.D.c k.- o o # m.{ [ ",
"; ; ; ; ; W W W W B T.z y u t x LX5.t c 3.u 0 3.MXA A A A T.{ } ",
"f f f f 9.9.=.9.9.Z.L.u r r q.1.) iXc 0.r t X + X $XZ.=.=.=.'.[ ",
"3 3 3 3 3 3 3 3 <.rXeX~ P.q.^ _ ) v ^ 0.H.q.  0   $.rXx.x.x.x.<.",
"#.#.e e e e e e IXsXuXy ` 8.UXJ.i R.2.8.yX` 3.+   tX} M.^.*.*.xX",
"q q q q q q E.E.E.q tXt 0.Y.fXe.i i ` fXI.e.(   + z V |.|.a.k.[ ",
"M M # o o 7 7 7 2 # aXy _ / ` t.i v _ / e.6X(   + ;Xn. . .a 5 u.",
"@ # # o o 9 9 9 2 6 pXu t.i U.r.v v r.) K.i r   + 3.{  .s.a 5 n ",
"M @ # # o 7 9 9 2 m.G.T ! r.v R.U.R.K.v i HXt   X 0 !. .% a 5 u.",
"] ] @ @ # 7 7 9 7 n.7.t t.i 5XS.B.4.4.9XU.iXy   X X V 2 % a = u.",
", ] M @ @ # o o # D 7.u _ JX<X4.R R R S.5X) ~ + 0 + a.2 % W.= n ",
"x.p - - @ # # o @ -.z u r ! K.B.R B.R 4.! z.  X 0 + L ' % a = n ",
"i.Z m p - - @ # - -.z T + X c >.E 9X7X;.r   X X 0 + d.' % W.= n ",
"+.f.N m p p - @ - D z T ~ 0   X AX5.E 0.N.  X X 0   Q.' % b = n ",
"j.bX XN . * p p p T.z t (   P.yXH.E 5.I / DX  + 0 0 Q.' % b = y.",
"#X+.f.6.: : : * . A aX;XP.C.A.A.J.0X0X/ Q GX  y   G.d.2 % b = y.",
"Z.j.j.vX; B 8 : : m d.pXS Q Q Y.t.K.! A.Q C.7.e.G.w.a.2 % b = y.",
"; #X+.jX; N N : . 8 V sX8.BXI.ZXF.F.qXQ I.N.1.SX4X-X`.s.% b 5 } ",
"6.'.+.f.W 4 4 4 . 8 %XG 2X1X<XY.F.S.! qX/ ,.FXV.V.%..X/./.a !.M.",
"; f p.i.Z 4 4 4 s . ` < K g 1X_ G 2XE %.7XJ V.O g.< ].n.-.5 `.^.",
" X, i.p.f s s s s o.G g.1 K NX,.>.E 4X1 1 K J h.OXO.%..XD 5 V *.",
"Z (.hXp.6XZ , , s 8.> l O J 1 &XH O O J O $ *X*XO.J O ).D 5 V ~.",
", (.oX@X2., j , l.%.g | & g O.C X.O.O g < F Y C OXO 1 k ].= }.~.",
"j , oX@XI o.o.j ).g.1 h.g.O K ....J < < & d h Y P g O < c.-X}.#.",
"o.j XX+XkXj , 0.H g gXd & < g d X.O & &XmX&.nXY H P | l l @.L #.",
"l.o.XX+XlX;.U &.h.h.F d & & & _.F < > &.:.5.;.b.c.$ > & & H wXe ",
"l.L.eX:.;.b.@.k & C h ..k k > _.C & H b.>.,.CX2.>.c.k $ k $ wXdX",
"$X$.J.^ 0.U :X@.X.=Xh ..$ $ l d C $ > > G :X,.>X1.G > $ > P ^ dX",
"3X1.U H.>XI q.8Xh h h X.$ $ | d C $ l > ,X:.I 2.^ &.P F Y 8X*.M.",
"S S z.$.$.S z.S N.{.{.v.cXzX[.v.[.@.,Xl H =XI :.VXv.Y KX( PXw.w."
};
