/* XPM */
static char *_ca7323172eb4ce8e972ea687d376c53mPcLI1Ulanu6lKjt[] = {
/* columns rows colors chars-per-pixel */
"32 32 96 2 ",
"   c #D5C1B1",
".  c #D3BFAF",
"X  c #D5C1B3",
"o  c #20201F",
"O  c #D4C0B0",
"+  c #19191A",
"@  c #222121",
"#  c #1E1F1E",
"$  c #D4BDB0",
"%  c #C68B8B",
"&  c #D8C2B3",
"*  c #1C1B1C",
"=  c #D0BDAE",
"-  c #DBC8B9",
";  c #1D1D1D",
":  c #C88D8C",
">  c #D6C2B4",
",  c #D4C0B3",
"<  c #D7C0B1",
"1  c #A39187",
"2  c #0D0D0E",
"3  c #C7888C",
"4  c #161615",
"5  c #9A8A81",
"6  c #CFBBAB",
"7  c #D8C5B5",
"8  c #131212",
"9  c #D7C3B4",
"0  c #D8C6B7",
"q  c #C5ADA1",
"w  c #98877F",
"e  c #262523",
"r  c #C8B3A6",
"t  c #5E5B58",
"y  c #3A3836",
"u  c #928178",
"i  c #352F29",
"p  c #D4C7BE",
"a  c #CBB7AA",
"s  c #A6968B",
"d  c #454342",
"f  c #2B2B2A",
"g  c #7A5753",
"h  c #CDBEB2",
"j  c #DBCDC3",
"k  c #ADA097",
"l  c #403C38",
"z  c #DDDEDE",
"x  c #D4D2D1",
"c  c #776861",
"v  c #5E5651",
"b  c #B4B5B6",
"n  c #CA8F8F",
"m  c #BA8E88",
"M  c #D2C2B7",
"N  c #DACABC",
"B  c gray80",
"V  c #D8D8D9",
"C  c #AF7B7A",
"Z  c #534842",
"A  c #C2B7AE",
"S  c #BAA499",
"D  c #BDAA9F",
"F  c #7E7B7A",
"G  c #666460",
"H  c #333433",
"J  c #BEBEBC",
"K  c #786E66",
"L  c #8B8684",
"P  c #867A74",
"I  c #B69B92",
"U  c #A18D82",
"Y  c #C1C2C3",
"T  c #747372",
"R  c #6C6D6D",
"E  c #C19490",
"W  c #A17874",
"Q  c #845A58",
"!  c #BB8786",
"~  c #97716E",
"^  c #E2D6CE",
"/  c #999595",
"(  c #BEB0A6",
")  c #93867C",
"_  c #6A5F57",
"`  c #B0A49A",
"'  c #838283",
"]  c #B3AA9F",
"[  c #7B5A56",
"{  c #7F5F5A",
"}  c #B28580",
"|  c #82746D",
" . c #A9AAA9",
".. c #C9A19A",
"X. c #977D76",
"o. c #9F9FA2",
/* pixels */
") 5 l f v u s h _ e v ( ( r = h h h 1 u u Z e K 1 P l i H L w K ",
"1 5 i Z ) 1 a r l Z ` , q = . . . 9 S u U u i v D w K i i L ` P ",
"> u i P 1 a j k d s 9 a r . O O O   = 1 u D | y h S U c f K p 1 ",
"0 c _ s k k s c t s = a a O   >   . 9 S u D A i | 5 K P i v j r ",
"= c c c F ' R t G T L ( 6 . O   > O   a U I P G t F T L R y k - ",
", v T  .o.d @ # ; H / A 6 . O   > O .   I D A T e @ ; f R G T P ",
"| F J b H 8 o # ; 2 y J h = .       O , r M L 8 * + * 4 2 d b ' ",
"G b V ' 8 e o ; * * + ` 0 = . O >   O $   p d 4 # * + * * 8 L J ",
" .B V d + @ ; * * ; 8 F N 6 . .     O $ 9 A f * * + + + * 2 t B ",
"J z Y f ; @ # * * # 8 t N 6 $ $ > 9 > $ 0 D @ ; ; + + + * 4 y x ",
"Y z J e # @ # + * 4 2 v p 6 $ $ & 9 9 $ - k * # ; + + + 8 8 H B ",
"Y z Y f ; @ # * 4 H e v N 6 $ < < 9 9 $ 0 k * # ; + + 4 y f H x ",
"J V x d + @ o 4 f B b F N $ < &     9 $ 7 ( @ ; # ; 8 l V Y R z ",
"b x z ' 8 e @ + f B b k 0 $ < & X X X , O p y 4 @ # 4 d V b b z ",
"/ B V x d 2 + * 8 # t M . $ < & > > , , = j / 4 8 4 4 2 @ F V x ",
"6 h x z B R l H y t A 7 . , < & & 9 ,   , . j ] t l l t / V x p ",
"O . O M j ^ j p p ^ - > & < & & > 9 9 X . > . N j p j ^ ^ p M , ",
". O O O . = . X . $ , > > > > > > > > , . , X . . $ $ 6 6 .   X ",
"O               , 9 - - - - - 0 0 - 0 9 > 7   X X . < .       X ",
". O           O & a S q q q q q q r r r r r $ , O               ",
"= .           . - c @ g [ g g g g [ { { { [ I & 6 . O           ",
". O           . N v Z W C C C C C ~ Q g Q g X., $ . .   X       ",
"= O       . . . 7 c W E n : n n n n ! ~ Q g ~ M = . .   X X     ",
"6 6 O     O . . 9 U m % % : : : % % : n C Q ~ , . . O   O   = . ",
"M   6 = O     . 9 S m : : : : : : % % % n W W M $ . O   . . - X ",
"t ] - 9 = = . . 9 q m : % % : : % 3 3 3 % ! I > $ = = , - 9 1 Z ",
"4 e G ` 7 0 . 6 . = m m % % % % % % 3 3 % } r . . 7 N = 5 Z + + ",
"@ # 4 o Z w A 0 9 O q } % % % % 3 3 3 3 ! ..& 7 0 ] K y 4 4 o @ ",
"o @ @ # 4 4 i G s 6 > q } ! 3 3 3 3 3 % q < r s Z e 4 + @ @ # # ",
"@ @ o # @ @ ; 2 l 5 1 D D I E m m E E S k 5 5 _ 8 @ @ @ o # # # ",
"o o o @ @ @ @ ; l w u u w 1 s s 1 1 U ) ) w 1 _ * e @ @ # # o o ",
"e o @ @ o @ @ * y w w 5 w w ) w w w w 5 5 w U t * @ @ @ o # # o "
};
